<?xml version="1.0" standalone="no"?>
<!DOCTYPE svg PUBLIC "-//W3C//DTD SVG 20010904//EN"
 "http://www.w3.org/TR/2001/REC-SVG-20010904/DTD/svg10.dtd">
<svg version="1.0" xmlns="http://www.w3.org/2000/svg"
 width="834.000000pt" height="834.000000pt" viewBox="0 0 834.000000 834.000000"
 preserveAspectRatio="xMidYMid meet">
<metadata>
Created by potrace 1.11, written by Peter Selinger 2001-2013
</metadata>
<g transform="translate(0.000000,834.000000) scale(0.100000,-0.100000)"
fill="#000000" stroke="none">
<path d="M2352 8089 c-114 -58 -133 -213 -36 -298 112 -99 283 -32 301 117 16
142 -137 247 -265 181z"/>
<path d="M4555 7877 c-95 -32 -160 -85 -206 -169 -32 -59 -34 -69 -34 -158 0
-84 3 -102 28 -152 99 -201 369 -252 536 -102 29 26 62 69 78 102 25 50 28 68
28 152 0 84 -3 101 -28 148 -61 115 -165 183 -291 189 -41 1 -88 -3 -111 -10z"/>
<path d="M3390 7105 c-475 -65 -891 -316 -1175 -710 -36 -50 -99 -158 -140
-241 l-76 -150 -67 -12 c-137 -23 -303 -92 -426 -175 -74 -50 -205 -174 -261
-247 -108 -141 -191 -330 -221 -503 -12 -68 -15 -132 -11 -247 6 -192 33 -305
111 -465 l54 -109 -77 -82 c-132 -143 -233 -329 -287 -532 -32 -119 -44 -360
-25 -493 39 -262 158 -498 350 -690 172 -172 371 -282 602 -334 l77 -17 7 -76
c47 -525 387 -971 875 -1146 305 -110 658 -105 956 14 98 39 233 114 285 158
42 36 40 37 112 -19 109 -86 268 -155 424 -185 118 -22 325 -15 438 15 163 44
363 164 471 284 91 101 181 257 219 378 l18 56 111 7 c404 24 708 157 977 425
209 210 336 441 401 731 20 91 23 132 23 305 0 155 -4 219 -18 285 -28 131
-83 284 -141 397 l-53 101 49 49 c67 65 154 198 188 286 88 225 78 481 -26
690 -97 194 -286 362 -470 417 l-41 12 -6 162 c-13 314 -92 566 -255 811 -374
559 -1073 808 -1726 614 l-69 -21 -136 70 c-207 107 -369 158 -590 187 -129
18 -323 17 -451 0z m1151 -1468 c31 -15 94 -62 140 -105 46 -44 94 -84 106
-90 38 -21 79 -13 155 27 95 52 147 62 298 62 193 0 309 -39 404 -134 126
-125 174 -325 127 -522 -41 -170 -89 -294 -296 -760 -210 -475 -280 -673 -305
-863 -14 -108 -5 -180 30 -236 42 -65 102 -91 290 -121 85 -14 175 -32 199
-40 97 -32 150 -104 151 -203 0 -168 -146 -243 -445 -229 -207 10 -420 62
-530 129 -215 131 -345 356 -345 598 0 163 29 240 298 795 302 625 327 685
320 766 -6 59 -27 85 -80 99 -96 26 -166 -34 -271 -232 -37 -69 -215 -418
-395 -775 -180 -356 -342 -669 -360 -695 -74 -107 -170 -158 -297 -158 -91 0
-168 26 -212 72 -42 45 -52 68 -59 135 -8 75 13 138 195 586 77 188 165 410
197 492 56 145 58 153 59 247 0 83 -3 101 -21 125 -58 79 -145 95 -226 44 -26
-17 -53 -40 -62 -53 -8 -13 -89 -211 -180 -440 -91 -230 -241 -606 -332 -835
-91 -230 -182 -447 -201 -483 -52 -93 -153 -191 -228 -221 -52 -20 -77 -23
-190 -24 -141 0 -183 9 -300 68 -79 39 -182 144 -223 225 -42 86 -55 158 -49
272 5 85 18 138 127 495 311 1027 464 1460 573 1623 82 122 214 218 377 273
78 26 109 31 184 31 111 0 132 -7 379 -123 214 -100 244 -106 325 -65 26 13
90 62 142 108 124 109 151 127 218 149 43 14 82 18 157 16 86 -2 108 -6 156
-30z"/>
<path d="M1605 6827 c-80 -32 -137 -88 -164 -160 -6 -16 -11 -56 -11 -90 1
-104 51 -186 142 -231 123 -62 277 -14 343 106 26 46 30 63 30 128 0 107 -47
185 -140 232 -48 25 -156 33 -200 15z"/>
<path d="M7070 6003 c-182 -79 -233 -315 -101 -466 105 -118 305 -123 418 -10
56 56 77 105 81 195 3 65 0 85 -20 130 -51 111 -143 168 -268 167 -43 0 -90
-7 -110 -16z"/>
<path d="M8030 4938 c-50 -34 -72 -83 -67 -146 2 -31 12 -64 23 -80 24 -32 98
-72 134 -72 36 0 110 40 134 72 28 39 32 123 8 168 -30 55 -75 80 -142 80 -43
0 -65 -6 -90 -22z"/>
<path d="M290 4674 c-108 -29 -194 -108 -235 -216 -25 -67 -18 -206 14 -266
34 -66 93 -125 158 -158 52 -26 68 -29 153 -29 89 0 99 2 158 34 70 38 120 90
154 160 19 39 23 62 23 146 0 89 -3 105 -27 150 -51 95 -123 154 -223 180 -72
18 -103 18 -175 -1z"/>
<path d="M7665 3965 c-5 -2 -23 -6 -38 -9 -16 -4 -48 -25 -73 -48 -144 -133
-51 -371 146 -371 142 0 239 123 209 265 -15 69 -83 139 -151 156 -46 12 -73
14 -93 7z"/>
<path d="M1360 1852 c-140 -70 -99 -285 58 -299 95 -9 172 61 172 157 0 120
-123 196 -230 142z"/>
<path d="M6039 1326 c-159 -43 -261 -179 -262 -351 -1 -69 3 -89 29 -145 37
-79 97 -140 172 -177 51 -25 68 -28 157 -28 90 0 106 3 155 28 72 37 131 96
166 165 26 52 29 66 29 162 0 114 -12 149 -76 231 -79 100 -240 150 -370 115z"/>
<path d="M3870 669 c-144 -58 -183 -253 -73 -361 95 -93 223 -92 314 2 79 81
88 184 26 277 -43 64 -101 93 -181 92 -34 0 -72 -5 -86 -10z"/>
</g>
</svg>
