<svg width="563" height="379" viewBox="0 0 563 379" fill="none" xmlns="http://www.w3.org/2000/svg">
<path d="M0 30C0 13.4315 13.4315 0 30 0H520C536.569 0 550 13.4315 550 30V351C550 367.569 536.569 381 520 381H30C13.4315 381 0 367.569 0 351V30Z" fill="#132743"/>
<path d="M76.3 176.85C89.4733 176.85 100.905 174 110.595 168.3C120.285 162.537 127.79 154.588 133.11 144.455C138.43 134.322 141.09 122.7 141.09 109.59C141.09 109.273 141.058 108.07 140.995 105.98C140.932 103.89 140.837 102.433 140.71 101.61H91.5V121.56H113.16C111.07 132.39 106.89 140.307 100.62 145.31C94.4133 150.313 86.8767 152.72 78.01 152.53C65.0267 152.34 55.2733 148.033 48.75 139.61C42.29 131.187 39.06 119.85 39.06 105.6C39.06 91.35 42.29 79.9183 48.75 71.305C55.2733 62.6917 65.0267 58.48 78.01 58.67C86.75 58.7333 93.9067 61.1717 99.48 65.985C105.117 70.735 109.17 77.1 111.64 85.08L138.05 81.28C134.63 66.3333 127.885 54.775 117.815 46.605C107.745 38.435 93.9067 34.35 76.3 34.35C64.3933 34.35 53.5317 37.1367 43.715 42.71C33.9617 48.2833 26.1717 56.39 20.345 67.03C14.5817 77.6067 11.7 90.4633 11.7 105.6C11.7 117.19 13.41 127.418 16.83 136.285C20.3133 145.152 25.0317 152.593 30.985 158.61C37.0017 164.627 43.905 169.187 51.695 172.29C59.485 175.33 67.6867 176.85 76.3 176.85ZM475.381 328.56H495.109V291.192C497.653 292.776 500.461 294 503.533 294.864C506.653 295.728 510.037 296.16 513.685 296.16C520.837 296.16 527.101 294.36 532.477 290.76C537.853 287.16 542.029 282.264 545.005 276.072C548.029 269.88 549.541 262.896 549.541 255.12C549.541 247.2 548.005 240.168 544.933 234.024C541.909 227.832 537.637 222.96 532.117 219.408C526.597 215.856 520.117 214.08 512.677 214.08C508.645 214.08 504.949 214.656 501.589 215.808C498.277 216.912 495.301 218.496 492.661 220.56V216.24H475.381V328.56ZM510.517 278.736C503.989 278.736 499.381 276.576 496.693 272.256C494.005 267.888 492.661 262.176 492.661 255.12C492.661 248.064 493.981 242.376 496.621 238.056C499.309 233.688 503.701 231.504 509.797 231.504C514.165 231.504 517.741 232.584 520.525 234.744C523.357 236.856 525.445 239.712 526.789 243.312C528.133 246.864 528.805 250.8 528.805 255.12C528.805 259.488 528.157 263.472 526.861 267.072C525.565 270.624 523.573 273.456 520.885 275.568C518.197 277.68 514.741 278.736 510.517 278.736Z" fill="#79DC68"/>
<path d="M158.35 85.44H177.934V68.16H158.35V85.44ZM158.35 174H177.934V96.24H158.35V174ZM199.519 174H219.247V134.256C219.247 125.232 222.799 119.088 229.903 115.824C232.207 114.72 234.775 114.072 237.607 113.88C240.487 113.64 243.007 113.856 245.167 114.528V96.24C241.663 95.808 238.159 95.904 234.655 96.528C231.151 97.104 227.983 98.256 225.151 99.984C223.327 101.04 221.719 102.312 220.327 103.8C218.983 105.288 217.807 106.944 216.799 108.768V96.24H199.519V174ZM260.303 174H279.887V68.16H260.303V174ZM20.8847 294H39.1727V232.08L69.2687 294H76.1807L106.277 232.08V294H124.565V190.32H106.997L72.7247 259.152L38.4527 190.32H20.8847V294ZM180.919 296.16C188.407 296.16 195.295 294.192 201.583 290.256C207.919 286.32 212.551 280.8 215.479 273.696L195.895 268.08C192.919 274.608 187.543 277.872 179.767 277.872C174.439 277.872 170.239 276.384 167.167 273.408C164.143 270.432 162.271 266.16 161.551 260.592H216.127C216.943 251.184 215.983 243 213.247 236.04C210.511 229.08 206.287 223.68 200.575 219.84C194.863 216 187.927 214.08 179.767 214.08C172.087 214.08 165.295 215.832 159.391 219.336C153.487 222.792 148.855 227.664 145.495 233.952C142.135 240.24 140.455 247.632 140.455 256.128C140.455 263.904 142.159 270.816 145.567 276.864C149.023 282.864 153.775 287.592 159.823 291.048C165.919 294.456 172.951 296.16 180.919 296.16ZM180.631 231.072C185.335 231.072 188.935 232.248 191.431 234.6C193.975 236.952 195.607 240.768 196.327 246.048H162.055C164.119 236.064 170.311 231.072 180.631 231.072ZM268.529 296.16C276.017 296.16 282.905 294.192 289.193 290.256C295.529 286.32 300.161 280.8 303.089 273.696L283.505 268.08C280.529 274.608 275.153 277.872 267.377 277.872C262.049 277.872 257.849 276.384 254.777 273.408C251.753 270.432 249.881 266.16 249.161 260.592H303.737C304.553 251.184 303.593 243 300.857 236.04C298.121 229.08 293.897 223.68 288.185 219.84C282.473 216 275.537 214.08 267.377 214.08C259.697 214.08 252.905 215.832 247.001 219.336C241.097 222.792 236.465 227.664 233.105 233.952C229.745 240.24 228.065 247.632 228.065 256.128C228.065 263.904 229.769 270.816 233.177 276.864C236.633 282.864 241.385 287.592 247.433 291.048C253.529 294.456 260.561 296.16 268.529 296.16ZM268.241 231.072C272.945 231.072 276.545 232.248 279.041 234.6C281.585 236.952 283.217 240.768 283.937 246.048H249.665C251.729 236.064 257.921 231.072 268.241 231.072ZM366.65 294V277.728C362.042 278.352 357.842 278.544 354.05 278.304C350.258 278.064 347.498 276.576 345.77 273.84C344.858 272.4 344.354 270.48 344.258 268.08C344.21 265.632 344.186 262.896 344.186 259.872V231.36H366.65V216.24H344.186V194.64H324.602V216.24H311.354V231.36H324.602V261.024C324.602 265.68 324.65 269.856 324.746 273.552C324.842 277.2 325.85 280.8 327.77 284.352C329.882 288.144 332.954 290.904 336.986 292.632C341.066 294.312 345.674 295.2 350.81 295.296C355.994 295.44 361.274 295.008 366.65 294ZM412.922 296.304C418.538 296.304 423.434 295.368 427.61 293.496C431.786 291.624 435.29 289.128 438.122 286.008V294H455.402V216.24H435.674V255.696C435.674 260.496 435.122 264.384 434.018 267.36C432.962 270.288 431.594 272.52 429.914 274.056C428.234 275.544 426.434 276.552 424.514 277.08C422.594 277.608 420.794 277.872 419.114 277.872C414.938 277.872 411.698 276.936 409.394 275.064C407.138 273.192 405.506 270.864 404.498 268.08C403.49 265.296 402.89 262.536 402.698 259.8C402.506 257.016 402.41 254.736 402.41 252.96V216.24H382.538V259.872C382.538 261.168 382.634 263.232 382.826 266.064C383.018 268.896 383.57 272.04 384.482 275.496C385.394 278.904 386.906 282.192 389.018 285.36C391.178 288.528 394.178 291.144 398.018 293.208C401.858 295.272 406.826 296.304 412.922 296.304Z" fill="white"/>
</svg>
